# xmcd
#
# Track frame offsets:
#	150
#	13316
#	31697
#	43666
#	56679
#	71730
#	85607
#	96618
#	109765
#	120136
#
# Disc length: 1766 seconds
#
# Revision: 1
# Processed by: cddbd v1.5.2PL0 Copyright (c) Steve Scherf et al.
# Submitted via: audiograbber 1.83.01
#
DISCID=7d06e40a
DTITLE=Various Artist - 30 #1 Country Hits (3 of 3)
DYEAR=1900
DGENRE=Country Classics
TTITLE0=Hank Williams - Hey Good Lookin'
TTITLE1=Johnny Cash - One Piece At A Time
TTITLE2=Jim Reeves - Mexican Joe
TTITLE3=Eddy Arnold - Anytime
TTITLE4=Charlie Rich and Janie Fricke - On My Knees
TTITLE5=Mickey Gilley - Don't The Girls All Get Prettier At Closing Time (live
TTITLE5=)
TTITLE6=Carl Smith - Hey Joe!
TTITLE7=Carl and Pearl Butler - Don't Let Me Cross Over
TTITLE8=George Hamilton IV - Abilene
TTITLE9=Ray Price - The Same Old Me
EXTD=
EXTT0=
EXTT1=
EXTT2=
EXTT3=
EXTT4=
EXTT5=
EXTT6=
EXTT7=
EXTT8=
EXTT9=
PLAYORDER=
